<svg xmlns="http://www.w3.org/2000/svg" xmlns:xlink="http://www.w3.org/1999/xlink" xmlns:inkscape="http://www.inkscape.org/namespaces/inkscape" version="1.1" width="469.075" height="490.417" viewBox="0 0 469.075 490.417">
<defs>
<clipPath id="clip_1">
<path transform="matrix(1,0,0,-1,0,490.417)" d="M0 490.417H469.075V0H0Z"/>
</clipPath>
</defs>
<g clip-path="url(#clip_1)">
<path transform="matrix(1,0,0,-1,234.9263,95.6333)" d="M0 0C-14.869-17.363-23.9-39.87-23.9-64.521-23.9-89.173-14.869-111.679 0-129.042 14.868-111.679 23.9-89.173 23.9-64.521 23.9-39.87 14.868-17.363 0 0" fill="#369dd7"/>
<path transform="matrix(1,0,0,-1,312.2007,190.55469)" d="M0 0C-14.666 0-25.219 9.731-25.219 9.731L-17.65 18.866C-17.65 18.866-10.417 11.925 .959 11.925 8.635 11.925 8.635 17.955 8.635 17.955 8.635 29.057-23.163 20.834-23.163 43.86-23.163 43.86-23.163 61.678-1.645 61.678 13.021 61.678 19.874 53.729 19.874 53.729L12.61 43.86C12.61 43.86 7.539 49.617-2.604 49.617-10.279 49.617-10.279 43.86-10.279 43.86-10.279 32.758 21.519 40.981 21.519 17.955 21.519 17.955 21.519 0 0 0M-1.85 129.725C-32.054 129.725-59.058 116.196-77.275 94.921-62.407 77.559-53.375 55.051-53.375 30.4-53.375 5.749-62.407-16.758-77.275-34.121-59.058-55.396-32.054-68.925-1.85-68.925 53.006-68.925 97.475-24.455 97.475 30.4 97.475 85.256 53.006 129.725-1.85 129.725" fill="#7acdf3"/>
<path transform="matrix(1,0,0,-1,186.4072,189.89548)" d="M0 0H-11.226L-39.352 36.347V0H-53.813V60.359H-41.238L-14.46 25.32V60.359H0ZM48.519 94.262C30.302 115.537 3.298 129.066-26.906 129.066-81.762 129.066-126.231 84.597-126.231 29.741-126.231-25.114-81.762-69.584-26.906-69.584 3.298-69.584 30.302-56.055 48.519-34.78 33.65-17.417 24.619 5.09 24.619 29.741 24.619 54.392 33.65 76.899 48.519 94.262" fill="#2868b2"/>
<path transform="matrix(1,0,0,-1,88.2544,346.9238)" d="M0 0V53.732C0 54.646 .457 55.104 1.372 55.104H9.682C10.379 55.104 10.918 54.808 11.294 54.217L31.465 20.653C31.572 20.438 31.693 20.358 31.828 20.411 31.961 20.465 32.03 20.6 32.03 20.814V53.732C32.03 54.646 32.487 55.104 33.402 55.104H41.873C42.787 55.104 43.244 54.646 43.244 53.732V0C43.244-.915 42.787-1.372 41.873-1.372H33.644C32.999-1.372 32.459-1.05 32.03-.403L11.779 33.481C11.67 33.696 11.55 33.776 11.416 33.724 11.281 33.67 11.214 33.535 11.214 33.32L11.294 0C11.294-.915 10.837-1.372 9.924-1.372H1.372C.457-1.372 0-.915 0 0" fill="#ffffff"/>
<path transform="matrix(1,0,0,-1,152.1929,317.1933)" d="M0 0C-1.157-.834-1.951-2.005-2.38-3.51-2.651-4.531-2.813-5.205-2.864-5.527-2.919-5.851-2.784-6.011-2.461-6.011H11.255C11.523-6.011 11.658-5.903 11.658-5.688 11.658-5.097 11.549-4.479 11.335-3.833 10.852-2.273 10.017-1.037 8.834-.121 7.65 .792 6.143 1.25 4.316 1.25 2.594 1.25 1.156 .833 0 0M14.563-18.437C14.885-18.06 15.234-17.871 15.612-17.871 15.935-17.871 16.229-18.005 16.5-18.274L21.098-22.712C21.419-23.035 21.581-23.357 21.581-23.681 21.581-24.057 21.473-24.38 21.258-24.647 19.484-26.854 17.21-28.589 14.441-29.853 11.671-31.115 8.645-31.748 5.365-31.748 .416-31.748-3.685-30.484-6.939-27.956-10.193-25.429-12.385-21.96-13.515-17.548-14.16-15.182-14.483-12.682-14.483-10.046-14.483-6.927-14.188-4.289-13.595-2.138-12.52 1.842-10.355 5.042-7.101 7.463-3.847 9.883 .012 11.094 4.477 11.094 9.748 11.094 13.929 9.533 17.023 6.414 20.116 3.294 22.119-1.09 23.034-6.736 23.25-8.512 23.409-10.477 23.518-12.627 23.518-13.542 23.058-13.999 22.145-13.999H-2.622C-2.945-13.999-3.106-14.16-3.106-14.483-2.945-15.611-2.758-16.446-2.542-16.983-2.005-18.65-.942-19.929 .645-20.816 2.231-21.704 4.154-22.147 6.414-22.147 9.964-21.985 12.679-20.749 14.563-18.437" fill="#ffffff"/>
<path transform="matrix(1,0,0,-1,187.6523,347.166)" d="M0 0-11.378 38.807C-11.433 38.915-11.458 39.076-11.458 39.291-11.458 39.99-11.055 40.34-10.248 40.34H-1.374C-.514 40.34 0 39.937 .162 39.13L5.726 15.248C5.781 15.033 5.887 14.925 6.049 14.925 6.21 14.925 6.32 15.033 6.372 15.248L12.344 39.13C12.505 39.937 13.014 40.34 13.876 40.34H21.782C22.641 40.34 23.155 39.937 23.314 39.13L29.448 15.167C29.5 14.952 29.609 14.846 29.771 14.846 29.932 14.846 30.039 14.952 30.093 15.167L36.224 39.13C36.386 39.937 36.897 40.34 37.756 40.34L46.631 40.259C47.115 40.259 47.452 40.11 47.641 39.816 47.829 39.52 47.868 39.157 47.761 38.726L36.224 0C35.953-.754 35.444-1.13 34.692-1.13H25.656C24.901-1.13 24.392-.754 24.121 0L18.072 21.138C17.963 21.353 17.843 21.461 17.708 21.461 17.575 21.461 17.479 21.353 17.427 21.138L12.1 .081C11.939-.727 11.427-1.13 10.568-1.13H1.532C.777-1.13 .268-.754 0 0" fill="#ffffff"/>
<path transform="matrix(1,0,0,-1,295.4385,309.97169)" d="M0 0C2.366-2.529 3.551-6.079 3.551-10.65V-36.952C3.551-37.867 3.094-38.324 2.18-38.324H-6.454C-7.368-38.324-7.824-37.867-7.824-36.952V-13.151C-7.824-10.947-8.391-9.198-9.521-7.908-10.647-6.617-12.155-5.972-14.037-5.972-15.919-5.972-17.454-6.617-18.636-7.908-19.821-9.198-20.412-10.92-20.412-13.072V-36.952C-20.412-37.867-20.869-38.324-21.782-38.324H-30.334C-31.25-38.324-31.708-37.867-31.708-36.952V-13.151C-31.708-11.001-32.298-9.267-33.48-7.948-34.665-6.631-36.197-5.972-38.079-5.972-39.803-5.972-41.242-6.482-42.396-7.505-43.553-8.526-44.24-9.952-44.453-11.78V-36.952C-44.453-37.867-44.91-38.324-45.827-38.324H-54.458C-55.375-38.324-55.829-37.867-55.829-36.952V1.773C-55.829 2.688-55.375 3.146-54.458 3.146H-45.827C-44.91 3.146-44.453 2.688-44.453 1.773V-.808C-44.453-1.023-44.388-1.157-44.251-1.211-44.12-1.266-43.997-1.186-43.89-.969-41.685 2.204-38.295 3.791-33.724 3.791-31.035 3.791-28.695 3.238-26.704 2.138-24.715 1.033-23.183-.565-22.105-2.664-22.053-2.879-21.957-2.973-21.823-2.945-21.689-2.92-21.569-2.825-21.459-2.664-20.223-.514-18.609 1.101-16.62 2.177-14.631 3.252-12.371 3.791-9.841 3.791-5.646 3.791-2.367 2.526 0 0" fill="#ffffff"/>
<path transform="matrix(1,0,0,-1,325.8574,338.6142)" d="M0 0C1.614 1.236 2.418 2.823 2.418 4.761V7.584C2.418 7.906 2.26 8.067 1.937 8.067H-3.792C-6.213 8.067-8.123 7.611-9.521 6.696-10.921 5.78-11.619 4.491-11.619 2.823-11.619 1.372-11.094 .229-10.046-.604-8.998-1.44-7.614-1.856-5.89-1.856-3.579-1.856-1.614-1.238 0 0M5.083 30.619C7.824 29.408 9.963 27.754 11.496 25.656 13.03 23.559 13.796 21.219 13.796 18.638V-8.31C13.796-9.225 13.336-9.682 12.423-9.682H3.792C2.875-9.682 2.418-9.225 2.418-8.31V-6.374C2.418-6.159 2.366-6.039 2.26-6.011 2.15-5.984 2.016-6.052 1.854-6.213-.619-8.955-4.304-10.327-9.198-10.327-13.34-10.327-16.675-9.306-19.203-7.262-21.733-5.219-22.994-2.206-22.994 1.775-22.994 5.916-21.542 9.129-18.639 11.416-15.733 13.702-11.591 14.846-6.213 14.846H1.937C2.26 14.846 2.418 15.007 2.418 15.33V17.023C2.418 18.799 1.868 20.184 .766 21.179-.336 22.174-1.937 22.671-4.035 22.671-5.649 22.671-6.979 22.401-8.03 21.864-9.077 21.327-9.792 20.573-10.166 19.605-10.489 18.851-11.028 18.502-11.78 18.557L-20.734 19.687C-21.167 19.738-21.503 19.86-21.744 20.049-21.987 20.236-22.081 20.492-22.026 20.815-21.758 23.021-20.83 25.011-19.244 26.786-17.657 28.562-15.559 29.945-12.951 30.941-10.341 31.936-7.452 32.434-4.276 32.434-.78 32.434 2.339 31.828 5.083 30.619" fill="#ffffff"/>
<path transform="matrix(1,0,0,-1,377.5742,310.1338)" d="M0 0C2.634-2.636 3.953-6.213 3.953-10.73V-36.79C3.953-37.705 3.493-38.162 2.58-38.162H-6.052C-6.968-38.162-7.425-37.705-7.425-36.79V-13.07C-7.425-10.92-8.016-9.172-9.198-7.827-10.382-6.482-11.969-5.81-13.958-5.81-15.95-5.81-17.564-6.482-18.8-7.827-20.037-9.172-20.655-10.92-20.655-13.07V-36.79C-20.655-37.705-21.112-38.162-22.028-38.162H-30.66C-31.576-38.162-32.03-37.705-32.03-36.79V1.936C-32.03 2.85-31.576 3.308-30.66 3.308H-22.028C-21.112 3.308-20.655 2.85-20.655 1.936V-.322C-20.655-.539-20.603-.673-20.494-.727-20.387-.781-20.28-.727-20.171-.564-17.966 2.447-14.713 3.953-10.41 3.953-6.106 3.953-2.638 2.635 0 0" fill="#ffffff"/>
<path transform="matrix(1,0,0,-1,111.083,427.52339)" d="M0 0C-3.173 1.397-5.621 3.361-7.341 5.889-9.063 8.417-9.924 11.375-9.924 14.764V16.136C-9.924 17.049-9.467 17.508-8.552 17.508H-.081C.833 17.508 1.291 17.157 1.291 16.458V15.328C1.291 13.177 2.272 11.361 4.236 9.883 6.199 8.403 8.767 7.664 11.941 7.664 14.791 7.664 16.903 8.269 18.275 9.479 19.646 10.689 20.332 12.183 20.332 13.958 20.332 15.248 19.901 16.338 19.041 17.225 18.18 18.112 17.023 18.892 15.572 19.564 14.119 20.236 11.78 21.164 8.552 22.349 4.894 23.585 1.828 24.849-.646 26.14-3.12 27.432-5.217 29.191-6.938 31.424-8.66 33.656-9.521 36.413-9.521 39.694-9.521 42.921-8.688 45.746-7.019 48.166-5.353 50.587-3.026 52.441-.04 53.733 2.945 55.024 6.347 55.67 10.166 55.67 14.253 55.67 17.911 54.943 21.139 53.491 24.366 52.038 26.88 50.008 28.682 47.399 30.483 44.79 31.385 41.764 31.385 38.322V37.516C31.385 36.601 30.928 36.145 30.014 36.145H21.542C20.626 36.145 20.171 36.413 20.171 36.952V37.758C20.171 40.018 19.242 41.939 17.387 43.527 15.531 45.112 12.989 45.907 9.763 45.907 7.181 45.907 5.189 45.368 3.792 44.293 2.393 43.217 1.695 41.738 1.695 39.855 1.695 38.511 2.098 37.381 2.905 36.468 3.711 35.553 4.934 34.718 6.575 33.966 8.215 33.212 10.757 32.243 14.2 31.062 17.964 29.662 20.949 28.439 23.155 27.391 25.36 26.341 27.337 24.741 29.085 22.591 30.833 20.438 31.708 17.669 31.708 14.28 31.708 10.999 30.861 8.121 29.166 5.646 27.472 3.172 25.079 1.263 21.986-.081 18.892-1.427 15.249-2.099 11.054-2.099 6.858-2.099 3.173-1.399 0 0" fill="#ffffff"/>
<path transform="matrix(1,0,0,-1,170.4639,396.623)" d="M0 0H-7.261C-7.583 0-7.745-.161-7.745-.484V-17.185C-7.745-18.96-7.382-20.266-6.656-21.099-5.93-21.933-4.76-22.349-3.146-22.349H-.888C.027-22.349 .484-22.807 .484-23.721V-30.658C.484-31.521 .027-32.004-.888-32.111-2.931-32.219-4.41-32.272-5.325-32.272-9.79-32.272-13.125-31.521-15.329-30.014-17.535-28.508-18.665-25.711-18.718-21.622V-.484C-18.718-.161-18.879 0-19.202 0H-23.317C-24.232 0-24.687 .457-24.687 1.372V7.745C-24.687 8.658-24.232 9.117-23.317 9.117H-19.202C-18.879 9.117-18.718 9.278-18.718 9.601V18.718C-18.718 19.632-18.261 20.09-17.346 20.09H-9.117C-8.203 20.09-7.745 19.632-7.745 18.718V9.601C-7.745 9.278-7.583 9.117-7.261 9.117H0C.914 9.117 1.372 8.658 1.372 7.745V1.372C1.372 .457 .914 0 0 0" fill="#ffffff"/>
<path transform="matrix(1,0,0,-1,189.7061,397.873)" d="M0 0C-1.156-.835-1.949-2.006-2.379-3.511-2.65-4.532-2.811-5.205-2.863-5.528-2.918-5.851-2.783-6.011-2.459-6.011H11.255C11.523-6.011 11.66-5.904 11.66-5.689 11.66-5.097 11.55-4.479 11.337-3.833 10.85-2.273 10.018-1.037 8.836-.122 7.649 .792 6.144 1.25 4.317 1.25 2.593 1.25 1.157 .833 0 0M14.565-18.437C14.888-18.061 15.238-17.872 15.61-17.872 15.933-17.872 16.229-18.006 16.502-18.275L21.098-22.713C21.421-23.035 21.585-23.358 21.585-23.681 21.585-24.058 21.476-24.38 21.262-24.648 19.484-26.854 17.213-28.589 14.444-29.853 11.67-31.115 8.645-31.749 5.367-31.749 .416-31.749-3.684-30.484-6.938-27.957-10.192-25.429-12.384-21.96-13.514-17.549-14.159-15.183-14.482-12.682-14.482-10.046-14.482-6.927-14.187-4.29-13.594-2.139-12.519 1.841-10.354 5.042-7.1 7.463-3.845 9.883 .014 11.093 4.481 11.093 9.75 11.093 13.93 9.532 17.021 6.414 20.119 3.294 22.121-1.091 23.035-6.737 23.248-8.513 23.413-10.477 23.516-12.627 23.516-13.542 23.062-13.999 22.148-13.999H-2.621C-2.944-13.999-3.105-14.16-3.105-14.483-2.944-15.612-2.756-16.446-2.541-16.983-2.004-18.651-.941-19.929 .646-20.816 2.232-21.704 4.158-22.147 6.413-22.147 9.963-21.986 12.683-20.75 14.565-18.437" fill="#ffffff"/>
<path transform="matrix(1,0,0,-1,225.1665,427.84669)" d="M0 0-11.378 38.807C-11.433 38.915-11.457 39.076-11.457 39.291-11.457 39.99-11.055 40.341-10.248 40.341H-1.373C-.514 40.341 0 39.937 .162 39.13L5.726 15.248C5.781 15.033 5.888 14.926 6.049 14.926 6.21 14.926 6.32 15.033 6.372 15.248L12.344 39.13C12.505 39.937 13.014 40.341 13.876 40.341H21.782C22.641 40.341 23.156 39.937 23.314 39.13L29.448 15.167C29.5 14.953 29.609 14.846 29.771 14.846 29.932 14.846 30.039 14.953 30.093 15.167L36.224 39.13C36.386 39.937 36.897 40.341 37.756 40.341L46.631 40.26C47.115 40.26 47.452 40.11 47.641 39.816 47.83 39.52 47.868 39.157 47.761 38.727L36.224 0C35.954-.753 35.445-1.13 34.692-1.13H25.656C24.901-1.13 24.392-.753 24.121 0L18.073 21.139C17.963 21.353 17.843 21.461 17.708 21.461 17.575 21.461 17.479 21.353 17.427 21.139L12.101 .081C11.939-.726 11.427-1.13 10.568-1.13H1.532C.777-1.13 .268-.753 0 0" fill="#ffffff"/>
<path transform="matrix(1,0,0,-1,295.8423,419.29389)" d="M0 0C1.614 1.236 2.418 2.823 2.418 4.76V7.583C2.418 7.906 2.26 8.067 1.937 8.067H-3.792C-6.213 8.067-8.123 7.61-9.521 6.695-10.921 5.78-11.619 4.49-11.619 2.823-11.619 1.372-11.094 .229-10.046-.604-8.998-1.44-7.614-1.856-5.89-1.856-3.579-1.856-1.614-1.238 0 0M5.083 30.618C7.824 29.407 9.963 27.754 11.496 25.655 13.03 23.559 13.796 21.218 13.796 18.637V-8.311C13.796-9.226 13.337-9.683 12.423-9.683H3.792C2.875-9.683 2.418-9.226 2.418-8.311V-6.375C2.418-6.16 2.366-6.039 2.26-6.011 2.15-5.984 2.016-6.052 1.855-6.213-.618-8.956-4.303-10.328-9.198-10.328-13.34-10.328-16.674-9.306-19.202-7.263-21.733-5.219-22.994-2.207-22.994 1.775-22.994 5.916-21.542 9.129-18.639 11.416-15.733 13.702-11.591 14.845-6.213 14.845H1.937C2.26 14.845 2.418 15.007 2.418 15.329V17.022C2.418 18.799 1.869 20.183 .766 21.179-.336 22.173-1.937 22.671-4.035 22.671-5.649 22.671-6.979 22.401-8.029 21.864-9.077 21.326-9.792 20.572-10.166 19.605-10.489 18.851-11.028 18.502-11.78 18.557L-20.734 19.687C-21.167 19.738-21.503 19.859-21.744 20.049-21.987 20.236-22.081 20.492-22.026 20.814-21.757 23.02-20.83 25.01-19.243 26.785-17.657 28.561-15.558 29.945-12.951 30.941-10.341 31.936-7.452 32.434-4.276 32.434-.78 32.434 2.339 31.827 5.083 30.618" fill="#ffffff"/>
<path transform="matrix(1,0,0,-1,340.457,387.9101)" d="M0 0C.646-.322 .889-.888 .728-1.694L-.807-10.166C-.859-10.649-1.007-10.945-1.25-11.054-1.491-11.161-1.882-11.161-2.418-11.054-3.28-10.839-4.06-10.73-4.76-10.73-5.135-10.73-5.756-10.784-6.615-10.892-8.552-11.054-10.193-11.766-11.537-13.03-12.883-14.294-13.553-15.974-13.553-18.072V-39.694C-13.553-40.609-14.01-41.066-14.926-41.066H-23.558C-24.474-41.066-24.928-40.609-24.928-39.694V-.968C-24.928-.055-24.474 .404-23.558 .404H-14.926C-14.01 .404-13.553-.055-13.553-.968V-3.469C-13.553-3.685-13.501-3.818-13.392-3.872-13.285-3.927-13.151-3.872-12.99-3.711-10.839-.592-7.934 .969-4.276 .969-2.555 .969-1.13 .646 0 0" fill="#ffffff"/>
<path transform="matrix(1,0,0,-1,367.3218,396.623)" d="M0 0H-7.26C-7.583 0-7.745-.161-7.745-.484V-17.185C-7.745-18.96-7.381-20.266-6.656-21.099-5.931-21.933-4.76-22.349-3.146-22.349H-.886C.027-22.349 .484-22.807 .484-23.721V-30.658C.484-31.521 .027-32.004-.886-32.111-2.933-32.219-4.41-32.272-5.324-32.272-9.788-32.272-13.123-31.521-15.328-30.014-17.536-28.508-18.666-25.711-18.718-21.622V-.484C-18.718-.161-18.879 0-19.202 0H-23.316C-24.23 0-24.687 .457-24.687 1.372V7.745C-24.687 8.658-24.23 9.117-23.316 9.117H-19.202C-18.879 9.117-18.718 9.278-18.718 9.601V18.718C-18.718 19.632-18.261 20.09-17.347 20.09H-9.115C-8.202 20.09-7.745 19.632-7.745 18.718V9.601C-7.745 9.278-7.583 9.117-7.26 9.117H0C.914 9.117 1.371 8.658 1.371 7.745V1.372C1.371 .457 .914 0 0 0" fill="#ffffff"/>
</g>
</svg>
